{"accessors":[{"bufferView":0,"componentType":5123,"count":4464,"max":[3023],"min":[0],"type":"SCALAR"},{"bufferView":1,"componentType":5126,"count":3024,"max":[0.9568727016448975,0.9547109603881836,-0.0],"min":[0.012186840176582336,0.010025408118963242,-0.9492209553718567],"type":"VEC3"},{"bufferView":2,"componentType":5126,"count":3024,"max":[1.0,1.0,1.0],"min":[-1.0,-1.0,-1.0],"type":"VEC3"},{"bufferView":3,"componentType":5126,"count":3024,"max":[1.0,0.9999918341636658,0.8680694699287415,1.0],"min":[-0.9999998807907104,-1.0,-0.8080602884292603,1.0],"type":"VEC4"},{"bufferView":4,"componentType":5126,"count":3024,"max":[1.0,1.0],"min":[0.0,0.0],"type":"VEC2"},{"bufferView":5,"componentType":5123,"count":6960,"max":[4274],"min":[0],"type":"SCALAR"},{"bufferView":6,"componentType":5126,"count":4275,"max":[1.0,0.9999997615814209,9.5367431640625e-07],"min":[-1.0000005960464478,-9.5367431640625e-07,-0.9999998211860657],"type":"VEC3"},{"bufferView":7,"componentType":5126,"count":4275,"max":[1.0,1.0,1.0],"min":[-1.0,-1.0,-1.0],"type":"VEC3"},{"bufferView":8,"componentType":5126,"count":4275,"max":[1.0,1.0],"min":[0.0,5.960464477539063e-08],"type":"VEC2"},{"bufferView":9,"componentType":5123,"count":6960,"max":[4270],"min":[0],"type":"SCALAR"},{"bufferView":10,"componentType":5126,"count":4271,"max":[1.0,0.9999997615814209,9.5367431640625e-07],"min":[-5.960464477539062e-07,-9.5367431640625e-07,-0.9999998211860657],"type":"VEC3"},{"bufferView":11,"componentType":5126,"count":4271,"max":[1.0,1.0,1.0],"min":[-1.0,-1.0,-1.0],"type":"VEC3"},{"bufferView":12,"componentType":5126,"count":4271,"max":[1.0,1.0],"min":[0.0,5.960464477539063e-08],"type":"VEC2"},{"bufferView":13,"componentType":5123,"count":4464,"max":[3021],"min":[0],"type":"SCALAR"},{"bufferView":14,"componentType":5126,"count":3022,"max":[1.9490211009979248,0.9506349563598633,-0.0],"min":[0.04874785244464874,0.05267980322241783,-1.0],"type":"VEC3"},{"bufferView":15,"componentType":5126,"count":3022,"max":[1.0,1.0,1.0],"min":[-1.0,-1.0,-1.0],"type":"VEC3"},{"bufferView":16,"componentType":5126,"count":3022,"max":[0.9976451992988586,0.999991238117218,0.9999992847442627,1.0],"min":[-0.9998537302017212,-0.9999997615814209,-0.9999997019767761,1.0],"type":"VEC4"},{"bufferView":17,"componentType":5126,"count":3022,"max":[1.0,1.0],"min":[0.0,0.0],"type":"VEC2"},{"bufferView":18,"componentType":5123,"count":4500,"max":[2999],"min":[0],"type":"SCALAR"},{"bufferView":19,"componentType":5126,"count":3000,"max":[0.8745656609535217,0.8822624087333679,0.05000001937150955],"min":[-0.025389358401298523,-0.01763150468468666,-0.8015459775924683],"type":"VEC3"},{"bufferView":20,"componentType":5126,"count":3000,"max":[1.0,1.0,1.0],"min":[-1.0,-1.0,-1.0],"type":"VEC3"},{"bufferView":21,"componentType":5126,"count":3000,"max":[1.0,1.0,1.0,1.0],"min":[-1.0,-1.0,-1.0,1.0],"type":"VEC4"},{"bufferView":22,"componentType":5126,"count":3000,"max":[1.0,1.0],"min":[0.0,0.0],"type":"VEC2"},{"bufferView":23,"componentType":5123,"count":6960,"max":[4270],"min":[0],"type":"SCALAR"},{"bufferView":24,"componentType":5126,"count":4271,"max":[1.0,1.999999761581421,9.5367431640625e-07],"min":[-5.960464477539062e-07,-9.5367431640625e-07,-0.9999998211860657],"type":"VEC3"},{"bufferView":25,"componentType":5126,"count":4271,"max":[1.0,1.0,1.0],"min":[-1.0,-1.0,-1.0],"type":"VEC3"},{"bufferView":26,"componentType":5126,"count":4271,"max":[1.0,1.0],"min":[0.0,5.960464477539063e-08],"type":"VEC2"}],"asset":{"generator":"Khronos Blender glTF 2.0 exporter","version":"2.0"},"bufferViews":[{"buffer":0,"byteLength":8928,"byteOffset":0,"target":34963},{"buffer":0,"byteLength":36288,"byteOffset":8928,"target":34962},{"buffer":0,"byteLength":36288,"byteOffset":45216,"target":34962},{"buffer":0,"byteLength":48384,"byteOffset":81504,"target":34962},{"buffer":0,"byteLength":24192,"byteOffset":129888,"target":34962},{"buffer":0,"byteLength":13920,"byteOffset":154080,"target":34963},{"buffer":0,"byteLength":51300,"byteOffset":168000,"target":34962},{"buffer":0,"byteLength":51300,"byteOffset":219300,"target":34962},{"buffer":0,"byteLength":34200,"byteOffset":270600,"target":34962},{"buffer":0,"byteLength":13920,"byteOffset":304800,"target":34963},{"buffer":0,"byteLength":51252,"byteOffset":318720,"target":34962},{"buffer":0,"byteLength":51252,"byteOffset":369972,"target":34962},{"buffer":0,"byteLength":34168,"byteOffset":421224,"target":34962},{"buffer":0,"byteLength":8928,"byteOffset":455392,"target":34963},{"buffer":0,"byteLength":36264,"byteOffset":464320,"target":34962},{"buffer":0,"byteLength":36264,"byteOffset":500584,"target":34962},{"buffer":0,"byteLength":48352,"byteOffset":536848,"target":34962},{"buffer":0,"byteLength":24176,"byteOffset":585200,"target":34962},{"buffer":0,"byteLength":9000,"byteOffset":609376,"target":34963},{"buffer":0,"byteLength":36000,"byteOffset":618376,"target":34962},{"buffer":0,"byteLength":36000,"byteOffset":654376,"target":34962},{"buffer":0,"byteLength":48000,"byteOffset":690376,"target":34962},{"buffer":0,"byteLength":24000,"byteOffset":738376,"target":34962},{"buffer":0,"byteLength":13920,"byteOffset":762376,"target":34963},{"buffer":0,"byteLength":51252,"byteOffset":776296,"target":34962},{"buffer":0,"byteLength":51252,"byteOffset":827548,"target":34962},{"buffer":0,"byteLength":34168,"byteOffset":878800,"target":34962}],"buffers":[{"byteLength":912968,"uri":"data:application/octet-stream;base64,"}],"meshes":[{"name":"Cube.006","primitives":[{"attributes":{"NORMAL":2,"POSITION":1,"TANGENT":3,"TEXCOORD_0":4},"indices":0}]},{"name":"Cube.014","primitives":[{"attributes":{"NORMAL":7,"POSITION":6,"TEXCOORD_0":8},"indices":5}]},{"name":"Cube.013","primitives":[{"attributes":{"NORMAL":11,"POSITION":10,"TEXCOORD_0":12},"indices":9}]},{"name":"Cube.004","primitives":[{"attributes":{"NORMAL":15,"POSITION":14,"TANGENT":16,"TEXCOORD_0":17},"indices":13}]},{"name":"Cube.010","primitives":[{"attributes":{"NORMAL":20,"POSITION":19,"TANGENT":21,"TEXCOORD_0":22},"indices":18}]},{"name":"Cube.000","primitives":[{"attributes":{"NORMAL":25,"POSITION":24,"TEXCOORD_0":26},"indices":23}]}],"nodes":[{"mesh":2,"name":"b1"},{"mesh":1,"name":"b10","translation":[3.0,2.0,-0.0]},{"mesh":5,"name":"b5","translation":[0.0,1.0,-0.0]},{"mesh":3,"name":"c2","translation":[2.0,2.0,-0.0]},{"mesh":0,"name":"c3","translation":[2.0,0.0,-0.04631999135017395]},{"mesh":4,"name":"d","translation":[2.0769002437591553,0.06772566586732864,0.3603615462779999]}],"scene":0,"scenes":[{"name":"Scene","nodes":[1,2,5,4,3,0]}]}
