<svg xmlns="http://www.w3.org/2000/svg" viewBox="0 0 23 23">
<path style="fill:#ffffff;" d="M17.19,20.81H5.81c-1.97,0-3.58-1.61-3.58-3.58V9.83h4.5c-0.33,0.7-0.51,1.47-0.51,2.29c0,2.98,2.42,5.4,5.4,5.4s5.4-2.42,5.4-5.4c0-0.82-0.18-1.6-0.51-2.29h4.26v7.41C20.76,19.21,19.16,20.81,17.19,20.81 M13.86,12.12c0,1.24-1.01,2.24-2.24,2.24c-1.24,0-2.24-1.01-2.24-2.24c0-1.24,1-2.24,2.24-2.24C12.85,9.88,13.86,10.88,13.86,12.12 M5.81,2.19h11.37c1.97,0,3.58,1.6,3.58,3.58v1.96h-6.02c-0.88-0.63-1.96-1-3.12-1c-1.16,0-2.24,0.37-3.12,1H2.23V5.77C2.23,3.79,3.84,2.19,5.81,2.19 M17.19,0.08H5.81c-3.13,0-5.68,2.55-5.68,5.68v11.47c0,3.13,2.55,5.68,5.68,5.68h11.37c3.13,0,5.68-2.55,5.68-5.68V5.77C22.87,2.63,20.32,0.08,17.19,0.08 M19.12,4.1c0-0.35-0.28-0.63-0.63-0.63h-1.95c-0.35,0-0.63,0.28-0.63,0.63v1.95c0,0.35,0.28,0.63,0.63,0.63h1.95c0.35,0,0.63-0.28,0.63-0.63V4.1z"/></svg>