<?xml version="1.0" encoding="utf-8"?>
<!-- Generator: Adobe Illustrator 22.1.0, SVG Export Plug-In . SVG Version: 6.00 Build 0)  -->
<svg version="1.1" id="Layer_1" xmlns="http://www.w3.org/2000/svg" xmlns:xlink="http://www.w3.org/1999/xlink" x="0px" y="0px"
	 viewBox="0 0 502 120" style="enable-background:new 0 0 502 120;" xml:space="preserve">
<style type="text/css">
	.st0{fill:#FFFFFF;}
</style>
<path class="st0" d="M449.56,11.22h38.64v48.73h-38.64V11.22z M449.56,3.39l-13.58,7.83v105.3h13.58V67.79h38.64v48.73h13.58V3.39
	H449.56z M413.01,93.2L344.78-0.09l-9.05,5.22v111.39h9.05V26.54L413.01,120l9.05-5.22V3.39h-9.05V93.2z M269.42,11.22h38.64v48.73
	h-38.64L269.42,11.22L269.42,11.22z M269.42,3.39l-13.58,7.83v105.3h13.58V67.79h38.64v48.73h13.58V3.39H269.42z M228.35,116.52
	h13.58V3.39h-13.58V116.52z M200.67,71.44c-1.91,13.23-9.4,25.41-20.19,33.77c-4.87,1.74-12.36,3.48-15.84,3.48h-19.32V11.22h4.18
	c14.27,0,29.07,7.48,38.46,17.93C198.24,40.63,202.94,56.3,200.67,71.44 M214.6,51.25c-1.39-15.14-9.75-28.89-22.1-37.77
	c-9.23-6.61-20.54-10.1-32.03-10.1h-15.14l-13.58,7.83v105.3h29.76c16.71-9.22,22.8-12.53,29.41-16.71c2.96-1.91,6.09-4.35,8.7-7.14
	C210.6,81.71,215.99,66.39,214.6,51.25 M108.26,93.2L40.03-0.09l-9.05,5.22v111.39h9.05V26.54L108.26,120l9.05-5.22V3.39h-9.05V93.2
	z M0,116.52h13.58V3.39H0V116.52z"/>
</svg>
